<?xml version="1.0" encoding="UTF-8" standalone="no"?>
<svg
   xmlns:dc="http://purl.org/dc/elements/1.1/"
   xmlns:cc="http://creativecommons.org/ns#"
   xmlns:rdf="http://www.w3.org/1999/02/22-rdf-syntax-ns#"
   xmlns:svg="http://www.w3.org/2000/svg"
   xmlns="http://www.w3.org/2000/svg"
   viewBox="0 0 1122.52 793.70667"
   height="793.70667"
   width="1122.52"
   xml:space="preserve"
   id="svg2"
   version="1.1"><metadata
     id="metadata8"><rdf:RDF><cc:Work
         rdf:about=""><dc:format>image/svg+xml</dc:format><dc:type
           rdf:resource="http://purl.org/dc/dcmitype/StillImage" /></cc:Work></rdf:RDF></metadata><defs
     id="defs6"><clipPath
       id="clipPath26"
       clipPathUnits="userSpaceOnUse"><path
         id="path24"
         d="M 0,595.28 H 841.89 V 0 H 0 Z" /></clipPath></defs><g
     transform="matrix(1.3333333,0,0,-1.3333333,0,793.70667)"
     id="g10"><g
       transform="translate(463.377,434.0205)"
       id="g12"><path
         id="path14"
         style="fill:#615854;fill-opacity:1;fill-rule:nonzero;stroke:none"
         d="M 0,0 H -13.016 L -27.837,-43.146 -44.643,0 h -13.45 l 24.378,-61.51 h 12.299 z" /></g><g
       transform="translate(512.4951,279.4102)"
       id="g16"><path
         id="path18"
         style="fill:#d52d87;fill-opacity:1;fill-rule:nonzero;stroke:none"
         d="M 0,0 H 15.461 L 38.805,-54.794 H 23.359 Z" /></g><g
       id="g20"><g
         clip-path="url(#clipPath26)"
         id="g22"><g
           transform="translate(172.0425,379.0044)"
           id="g28"><path
             id="path30"
             style="fill:#615854;fill-opacity:1;fill-rule:nonzero;stroke:none"
             d="m 0,0 c -4.917,-5.1 -10.799,-7.006 -17.367,-7.006 -6.737,0 -12.267,2.428 -16.578,6.74 -6.219,6.226 -6.044,13.905 -6.044,24.535 0,10.613 -0.175,18.308 6.044,24.526 4.311,4.328 9.664,6.737 16.578,6.737 14.258,0 21.513,-9.332 23.155,-19.688 H -6.305 c -1.385,5.791 -4.926,8.979 -11.062,8.979 -3.275,0 -5.953,-1.293 -7.685,-3.282 -2.338,-2.592 -2.94,-5.44 -2.94,-17.272 0,-11.84 0.602,-14.775 2.94,-17.378 1.732,-1.974 4.41,-3.18 7.685,-3.18 3.633,0 6.568,1.289 8.557,3.45 1.987,2.25 2.762,5.014 2.762,8.203 V 17.69 H -17.367 V 27.726 H 5.87 V 18.739 C 5.87,9.833 4.316,4.474 0,0" /></g><g
           transform="translate(218.2207,371.9961)"
           id="g32"><path
             id="path34"
             style="fill:#615854;fill-opacity:1;fill-rule:nonzero;stroke:none"
             d="m 0,0 c -12.608,0 -22.616,8.553 -22.616,21.607 v 40.417 h 11.99 V 22.026 c 0,-7.085 4.147,-11.308 10.626,-11.308 6.484,0 10.721,4.223 10.721,11.308 V 62.024 H 22.639 V 21.607 C 22.639,8.553 12.624,0 0,0" /></g><g
           transform="translate(277.6367,371.9961)"
           id="g36"><path
             id="path38"
             style="fill:#615854;fill-opacity:1;fill-rule:nonzero;stroke:none"
             d="m 0,0 c -9.334,0 -16.42,1.993 -22.461,8.125 l 7.774,7.774 c 3.889,-3.893 9.158,-5.181 14.857,-5.181 7.085,0 10.883,2.677 10.883,7.598 0,2.164 -0.605,3.972 -1.903,5.185 -1.206,1.121 -2.59,1.726 -5.439,2.153 l -7.434,1.036 c -5.265,0.784 -9.15,2.426 -11.919,5.103 -2.929,2.939 -4.406,6.907 -4.406,12.089 0,10.971 8.121,18.657 21.425,18.657 8.461,0 14.601,-2.066 19.87,-7.177 l -7.604,-7.504 c -3.892,3.715 -8.555,4.229 -12.607,4.229 -6.395,0 -9.506,-3.541 -9.506,-7.777 0,-1.555 0.52,-3.181 1.816,-4.395 1.212,-1.127 3.197,-2.081 5.701,-2.421 l 7.255,-1.037 c 5.61,-0.787 9.157,-2.342 11.75,-4.759 3.283,-3.1 4.751,-7.598 4.751,-13.031 C 22.803,6.741 12.869,0 0,0" /></g><g
           transform="translate(338.4146,423.3115)"
           id="g40"><path
             id="path42"
             style="fill:#615854;fill-opacity:1;fill-rule:nonzero;stroke:none"
             d="M 0,0 V -50.801 H -12.014 V 0 H -28.087 V 10.709 H 16.064 L 16.064,0 Z" /></g><g
           transform="translate(382.666,415.8784)"
           id="g44"><path
             id="path46"
             style="fill:#615854;fill-opacity:1;fill-rule:nonzero;stroke:none"
             d="m 0,0 -7.783,-22.37 h 15.3 z m 14.331,-43.368 -3.627,10.894 -21.85,10e-4 -3.72,-10.895 h -12.526 l 22.379,61.51 h 9.421 l 22.452,-61.51 z" /></g><g
           transform="translate(472.5596,372.5103)"
           id="g48"><path
             id="path50"
             style="fill:#615854;fill-opacity:1;fill-rule:nonzero;stroke:none"
             d="M 0,0 V 61.51 H 40.515 V 50.801 H 12.198 V 36.371 H 36.292 V 25.658 H 12.214 V 10.712 H 40.515 V 0 Z" /></g><g
           transform="translate(158.6992,345.3086)"
           id="g52"><path
             id="path54"
             style="fill:#615854;fill-opacity:1;fill-rule:nonzero;stroke:none"
             d="M 0,0 H -13.023 V -18.681 H 0 c 6.056,0 10.032,3.885 10.032,9.348 C 10.032,-3.876 6.056,0 0,0 m 10.728,-58.434 -13.806,28.219 h -9.945 V -58.434 H -26.837 V 12.322 H 0.89 c 14.402,0 22.955,-9.839 22.955,-21.655 0,-9.941 -6.064,-16.096 -12.923,-18.583 l 15.796,-30.518 z" /></g><g
           transform="translate(240.7876,342.1289)"
           id="g56"><path
             id="path58"
             style="fill:#615854;fill-opacity:1;fill-rule:nonzero;stroke:none"
             d="m 0,0 c -1.986,2.284 -5.063,3.787 -8.851,3.787 -3.772,0 -6.949,-1.503 -8.931,-3.787 -2.681,-2.972 -3.378,-6.259 -3.378,-19.885 0,-13.604 0.697,-16.882 3.378,-19.864 1.982,-2.282 5.159,-3.769 8.931,-3.769 3.788,0 6.865,1.487 8.851,3.769 2.678,2.982 3.481,6.26 3.481,19.864 C 3.481,-6.259 2.678,-2.972 0,0 m 10.237,-48.096 c -4.972,-4.965 -11.029,-7.749 -19.088,-7.749 -8.04,0 -14.204,2.784 -19.174,7.749 -7.155,7.158 -6.957,15.999 -6.957,28.211 0,12.239 -0.198,21.075 6.957,28.228 4.97,4.969 11.134,7.756 19.174,7.756 8.059,0 14.116,-2.787 19.088,-7.756 7.153,-7.153 7.051,-15.989 7.051,-28.228 0,-12.212 0.102,-21.053 -7.051,-28.211" /></g><g
           transform="translate(306.3252,286.2842)"
           id="g60"><path
             id="path62"
             style="fill:#615854;fill-opacity:1;fill-rule:nonzero;stroke:none"
             d="m 0,0 c -14.502,0 -26.03,9.837 -26.03,24.842 v 46.503 h 13.822 V 25.337 c 0,-8.147 4.766,-13.006 12.208,-13.006 7.457,0 12.333,4.859 12.333,13.006 V 71.345 H 26.04 V 24.842 C 26.04,9.837 14.52,0 0,0" /></g><g
           transform="translate(377.2329,286.2842)"
           id="g64"><path
             id="path66"
             style="fill:#615854;fill-opacity:1;fill-rule:nonzero;stroke:none"
             d="m 0,0 c -10.737,0 -18.885,2.291 -25.836,9.344 l 8.936,8.948 c 4.478,-4.478 10.535,-5.961 17.102,-5.961 8.141,0 12.505,3.078 12.505,8.738 0,2.476 -0.687,4.558 -2.174,5.959 C 9.14,28.32 7.542,29.011 4.262,29.51 l -8.547,1.202 c -6.065,0.884 -10.523,2.773 -13.707,5.853 -3.366,3.374 -5.063,7.942 -5.063,13.916 0,12.623 9.335,21.464 24.642,21.464 9.735,0 16.798,-2.384 22.853,-8.25 l -8.748,-8.646 c -4.47,4.28 -9.839,4.869 -14.502,4.869 -7.351,0 -10.933,-4.069 -10.933,-8.947 0,-1.792 0.593,-3.667 2.088,-5.06 1.396,-1.304 3.678,-2.39 6.55,-2.783 l 8.35,-1.194 C 13.72,41.042 17.78,39.255 20.769,36.46 24.534,32.896 26.225,27.732 26.225,21.466 26.225,7.749 14.797,0 0,0" /></g><g
           transform="translate(445.6367,286.2842)"
           id="g68"><path
             id="path70"
             style="fill:#615854;fill-opacity:1;fill-rule:nonzero;stroke:none"
             d="m 0,0 c -10.736,0 -18.887,2.291 -25.841,9.344 l 8.951,8.948 c 4.46,-4.478 10.533,-5.961 17.085,-5.961 8.157,0 12.522,3.078 12.522,8.738 0,2.476 -0.697,4.558 -2.182,5.959 -1.394,1.292 -2.993,1.983 -6.272,2.482 l -8.538,1.202 c -6.065,0.884 -10.523,2.773 -13.716,5.852 -3.372,3.375 -5.066,7.943 -5.066,13.917 0,12.623 9.337,21.464 24.645,21.464 9.727,0 16.805,-2.384 22.852,-8.25 L 15.7,55.049 c -4.477,4.28 -9.845,4.869 -14.51,4.869 -7.348,0 -10.934,-4.069 -10.934,-8.948 0,-1.791 0.595,-3.666 2.089,-5.059 1.396,-1.304 3.678,-2.39 6.557,-2.783 L 7.256,41.934 C 13.713,41.042 17.78,39.255 20.762,36.46 24.542,32.896 26.228,27.732 26.228,21.466 26.228,7.749 14.797,0 0,0" /></g><g
           transform="translate(140.1479,232.9727)"
           id="g72"><path
             id="path74"
             style="fill:#615854;fill-opacity:1;fill-rule:nonzero;stroke:none"
             d="m 0,0 c -2.413,0 -4.39,0.867 -5.929,2.409 -2.224,2.219 -2.16,4.967 -2.16,8.773 0,3.791 -0.064,6.543 2.16,8.768 1.539,1.539 3.516,2.399 5.929,2.399 4.105,0 7.322,-2.336 8.089,-6.94 h -4.35 c -0.435,1.757 -1.547,3.116 -3.706,3.116 -1.172,0 -2.138,-0.437 -2.754,-1.139 -0.824,-0.925 -1.076,-1.977 -1.076,-6.204 0,-4.227 0.252,-5.279 1.076,-6.211 0.616,-0.712 1.582,-1.142 2.754,-1.142 2.159,0 3.271,1.361 3.706,3.126 h 4.35 C 7.322,2.34 4.071,0 0,0" /></g><g
           transform="translate(159.0146,248.6572)"
           id="g76"><path
             id="path78"
             style="fill:#615854;fill-opacity:1;fill-rule:nonzero;stroke:none"
             d="M 0,0 -2.778,-7.992 H 2.686 Z M 5.123,-15.49 3.83,-11.611 H -3.984 L -5.31,-15.49 h -4.477 l 7.995,21.974 h 3.363 l 8.03,-21.974 z" /></g><g
           transform="translate(184.3335,233.167)"
           id="g80"><path
             id="path82"
             style="fill:#615854;fill-opacity:1;fill-rule:nonzero;stroke:none"
             d="M 0,0 -8.713,13.489 V 0 h -4.292 v 21.975 h 3.831 L -0.467,8.519 V 21.975 H 3.822 L 3.822,0 Z" /></g><g
           transform="translate(200.6338,232.9727)"
           id="g84"><path
             id="path86"
             style="fill:#615854;fill-opacity:1;fill-rule:nonzero;stroke:none"
             d="m 0,0 c -2.405,0 -4.383,0.867 -5.929,2.409 -2.227,2.219 -2.16,4.967 -2.16,8.773 0,3.791 -0.067,6.543 2.16,8.768 1.546,1.539 3.524,2.399 5.929,2.399 4.113,0 7.322,-2.336 8.088,-6.94 H 3.739 c -0.435,1.757 -1.555,3.116 -3.706,3.116 -1.173,0 -2.131,-0.437 -2.754,-1.139 -0.824,-0.925 -1.077,-1.977 -1.077,-6.204 0,-4.227 0.253,-5.279 1.077,-6.211 0.623,-0.712 1.581,-1.142 2.754,-1.142 2.151,0 3.271,1.361 3.706,3.126 H 8.088 C 7.322,2.34 4.071,0 0,0" /></g><g
           transform="translate(212.4316,233.167)"
           id="g88"><path
             id="path90"
             style="fill:#615854;fill-opacity:1;fill-rule:nonzero;stroke:none"
             d="M 0,0 V 21.975 H 14.477 V 18.143 H 4.291 v -5.157 h 8.672 V 9.166 H 4.291 V 3.817 H 14.477 V 0 Z" /></g><g
           transform="translate(239.4434,251.3096)"
           id="g92"><path
             id="path94"
             style="fill:#615854;fill-opacity:1;fill-rule:nonzero;stroke:none"
             d="M 0,0 H -4.042 V -5.803 H 0 c 1.887,0 3.117,1.215 3.117,2.907 C 3.117,-1.2 1.887,0 0,0 m 3.337,-18.143 -4.286,8.762 h -3.093 v -8.762 H -8.333 V 3.832 h 8.614 c 4.478,0 7.136,-3.06 7.136,-6.728 0,-3.084 -1.887,-4.997 -4.019,-5.773 l 4.91,-9.474 z" /></g><g
           transform="translate(265.8159,232.9727)"
           id="g96"><path
             id="path98"
             style="fill:#615854;fill-opacity:1;fill-rule:nonzero;stroke:none"
             d="m 0,0 c -2.414,0 -4.383,0.867 -5.938,2.409 -2.216,2.219 -2.151,4.967 -2.151,8.773 0,3.791 -0.065,6.543 2.151,8.768 1.555,1.539 3.524,2.399 5.938,2.399 4.106,0 7.322,-2.336 8.088,-6.94 h -4.35 c -0.435,1.757 -1.547,3.116 -3.705,3.116 -1.173,0 -2.131,-0.437 -2.755,-1.139 -0.831,-0.925 -1.084,-1.977 -1.084,-6.204 0,-4.227 0.253,-5.279 1.084,-6.211 0.624,-0.712 1.582,-1.142 2.755,-1.142 2.158,0 3.27,1.361 3.705,3.126 h 4.35 C 7.322,2.34 4.071,0 0,0" /></g><g
           transform="translate(284.6816,248.6572)"
           id="g100"><path
             id="path102"
             style="fill:#615854;fill-opacity:1;fill-rule:nonzero;stroke:none"
             d="m 0,0 -2.777,-7.992 h 5.456 z m 5.123,-15.49 -1.292,3.879 H -3.984 L -5.31,-15.49 H -9.787 L -1.791,6.484 H 1.58 L 9.601,-15.49 Z" /></g><g
           transform="translate(312.625,233.167)"
           id="g104"><path
             id="path106"
             style="fill:#615854;fill-opacity:1;fill-rule:nonzero;stroke:none"
             d="M 0,0 V 12.81 L -4.205,4.469 h -2.904 l -4.225,8.341 V 0 h -4.287 v 21.975 h 4.229 L -5.649,10.088 0.06,21.975 H 4.291 V 0 Z" /></g><g
           transform="translate(330.3413,251.3096)"
           id="g108"><path
             id="path110"
             style="fill:#615854;fill-opacity:1;fill-rule:nonzero;stroke:none"
             d="M 0,0 H -4.01 V -6.017 H 0 c 1.953,0 3.185,1.203 3.185,2.992 C 3.185,-1.236 1.953,0 0,0 M 0.219,-9.876 H -4.01 v -8.267 H -8.299 V 3.832 h 8.518 c 4.532,0 7.265,-3.116 7.265,-6.857 0,-3.733 -2.733,-6.851 -7.265,-6.851" /></g><g
           transform="translate(349.1763,232.9727)"
           id="g112"><path
             id="path114"
             style="fill:#615854;fill-opacity:1;fill-rule:nonzero;stroke:none"
             d="m 0,0 c -4.51,0 -8.09,3.053 -8.09,7.718 v 14.451 h 4.3 V 7.861 c 0,-2.52 1.479,-4.03 3.79,-4.03 2.317,0 3.836,1.51 3.836,4.03 V 22.169 H 8.089 V 7.718 C 8.089,3.053 4.509,0 0,0" /></g><g
           transform="translate(368.1138,232.9727)"
           id="g116"><path
             id="path118"
             style="fill:#615854;fill-opacity:1;fill-rule:nonzero;stroke:none"
             d="m 0,0 c -3.345,0 -5.87,0.713 -8.037,2.902 l 2.781,2.774 c 1.385,-1.381 3.271,-1.845 5.316,-1.845 2.532,0 3.884,0.963 3.884,2.712 0,0.777 -0.212,1.433 -0.672,1.854 C 2.837,8.806 2.338,9.012 1.319,9.166 l -2.652,0.367 c -1.887,0.289 -3.272,0.871 -4.264,1.828 -1.044,1.052 -1.569,2.465 -1.569,4.324 0,3.919 2.902,6.664 7.653,6.664 3.03,0 5.223,-0.731 7.109,-2.56 L 4.875,17.101 c -1.393,1.328 -3.059,1.515 -4.509,1.515 -2.292,0 -3.391,-1.256 -3.391,-2.777 0,-0.551 0.173,-1.135 0.645,-1.579 0.427,-0.397 1.142,-0.738 2.033,-0.86 L 2.244,13.037 C 4.258,12.762 5.523,12.195 6.45,11.328 7.621,10.219 8.146,8.607 8.146,6.672 8.146,2.409 4.589,0 0,0" /></g><g
           transform="translate(146.1401,204.6406)"
           id="g120"><path
             id="path122"
             style="fill:#615854;fill-opacity:1;fill-rule:nonzero;stroke:none"
             d="m 0,0 c -1.546,-1.668 -3.62,-2.534 -5.862,-2.534 -2.173,0 -4.146,0.797 -5.626,2.284 -2.073,2.064 -2.073,4.226 -2.073,8.897 0,4.658 0,6.818 2.073,8.89 1.48,1.484 3.425,2.284 5.626,2.284 4.196,0 7.036,-2.72 7.682,-6.582 h -2.347 c -0.613,2.778 -2.598,4.486 -5.335,4.486 -1.46,0 -2.853,-0.592 -3.798,-1.587 -1.393,-1.418 -1.547,-2.899 -1.547,-7.491 0,-4.606 0.154,-6.12 1.547,-7.538 0.945,-0.987 2.338,-1.538 3.798,-1.538 1.596,0 3.141,0.639 4.161,1.877 0.901,1.079 1.241,2.284 1.241,3.993 v 1.653 h -5.402 v 2.072 h 7.74 V 5.672 C 1.878,3.142 1.352,1.448 0,0" /></g><g
           transform="translate(161.7026,222.1777)"
           id="g124"><path
             id="path126"
             style="fill:#615854;fill-opacity:1;fill-rule:nonzero;stroke:none"
             d="M 0,0 H -5.863 V -8.063 H 0 c 2.558,0 4.382,1.327 4.382,4.015 C 4.382,-1.359 2.558,0 0,0 m 4.411,-19.891 -5.004,9.763 h -5.27 v -9.763 H -8.217 V 2.09 h 8.435 c 3.824,0 6.511,-2.307 6.511,-6.112 0,-3.211 -1.945,-5.305 -4.786,-5.896 l 5.216,-9.973 z" /></g><g
           transform="translate(180.043,220.917)"
           id="g128"><path
             id="path130"
             style="fill:#615854;fill-opacity:1;fill-rule:nonzero;stroke:none"
             d="M 0,0 -4.146,-11.611 H 4.07 Z m 6.516,-18.63 -1.77,4.969 H -4.851 L -6.61,-18.63 h -2.5 L -1.021,3.351 H 0.953 L 9.012,-18.63 Z" /></g><g
           transform="translate(206.625,202.2871)"
           id="g132"><path
             id="path134"
             style="fill:#615854;fill-opacity:1;fill-rule:nonzero;stroke:none"
             d="M 0,0 -11.674,17.632 V 0 h -2.349 v 21.98 h 2.224 L -0.119,4.411 V 21.98 H 2.228 V 0 Z" /></g><g
           transform="translate(226.666,220.5762)"
           id="g136"><path
             id="path138"
             style="fill:#615854;fill-opacity:1;fill-rule:nonzero;stroke:none"
             d="m 0,0 c -1.148,1.165 -2.623,1.602 -4.324,1.602 h -4.785 v -17.788 h 4.785 c 1.701,0 3.176,0.438 4.324,1.603 1.504,1.571 1.451,4.85 1.451,7.546 C 1.451,-4.356 1.504,-1.579 0,0 m 1.637,-16.247 c -1.34,-1.323 -3.279,-2.042 -5.564,-2.042 h -7.532 v 21.98 h 7.532 c 2.285,0 4.224,-0.705 5.564,-2.031 2.28,-2.284 2.161,-5.653 2.161,-8.697 0,-3.068 0.119,-6.926 -2.161,-9.21" /></g><g
           transform="translate(251.645,222.1777)"
           id="g140"><path
             id="path142"
             style="fill:#615854;fill-opacity:1;fill-rule:nonzero;stroke:none"
             d="M 0,0 H -5.625 V -8.743 H 0 c 2.746,0 4.657,1.488 4.657,4.384 C 4.657,-1.455 2.746,0 0,0 m 0.212,-10.841 h -5.837 v -9.05 H -7.967 V 2.09 h 8.179 c 4.017,0 6.79,-2.494 6.79,-6.449 0,-3.947 -2.773,-6.482 -6.79,-6.482" /></g><g
           transform="translate(267.8804,220.917)"
           id="g144"><path
             id="path146"
             style="fill:#615854;fill-opacity:1;fill-rule:nonzero;stroke:none"
             d="m 0,0 -4.137,-11.611 h 8.216 z m 6.515,-18.63 -1.764,4.969 H -4.842 L -6.61,-18.63 H -9.1 L -1.013,3.351 H 0.953 L 9.021,-18.63 Z" /></g><g
           transform="translate(288.6646,222.1777)"
           id="g148"><path
             id="path150"
             style="fill:#615854;fill-opacity:1;fill-rule:nonzero;stroke:none"
             d="M 0,0 H -5.87 V -8.063 H 0 c 2.56,0 4.383,1.327 4.383,4.015 C 4.383,-1.359 2.56,0 0,0 m 4.412,-19.891 -5.003,9.763 H -5.87 v -9.763 H -8.216 V 2.09 h 8.428 c 3.832,0 6.517,-2.307 6.517,-6.112 0,-3.211 -1.953,-5.305 -4.784,-5.896 l 5.223,-9.973 z" /></g><path
           id="path152"
           style="fill:#615854;fill-opacity:1;fill-rule:nonzero;stroke:none"
           d="m 300.698,224.268 h 2.357 v -21.98 h -2.357 z" /><g
           transform="translate(315.063,202.1064)"
           id="g154"><path
             id="path156"
             style="fill:#615854;fill-opacity:1;fill-rule:nonzero;stroke:none"
             d="m 0,0 c -3.305,0 -5.464,0.834 -7.536,2.898 l 1.606,1.609 c 1.824,-1.826 3.517,-2.405 5.988,-2.405 3.212,0 5.19,1.509 5.19,4.069 0,1.149 -0.339,2.138 -1.044,2.744 C 3.49,9.533 2.931,9.724 1.325,9.977 l -2.565,0.396 c -1.724,0.275 -3.084,0.838 -4.039,1.668 -1.119,0.995 -1.67,2.348 -1.67,4.113 0,3.733 2.691,6.201 7.043,6.201 2.812,0 4.657,-0.711 6.547,-2.405 L 5.123,18.437 C 3.765,19.667 2.317,20.316 0,20.316 c -2.931,0 -4.632,-1.644 -4.632,-4.077 0,-1.082 0.308,-1.957 0.988,-2.538 0.68,-0.584 1.816,-1.013 2.972,-1.208 l 2.396,-0.36 C 3.796,11.821 4.809,11.384 5.741,10.583 6.939,9.569 7.594,8.056 7.594,6.234 7.594,2.373 4.568,0 0,0" /></g><g
           transform="translate(500.7451,271.9131)"
           id="g158"><path
             id="path160"
             style="fill:#00adaa;fill-opacity:1;fill-rule:nonzero;stroke:none"
             d="m 0,0 -15.469,0.015 -29.624,-69.514 h 15.438 z" /></g><g
           transform="translate(522.2031,358.5337)"
           id="g162"><path
             id="path164"
             style="fill:#615854;fill-opacity:1;fill-rule:nonzero;stroke:none"
             d="M 0,0 -14.024,-32.833 -27.96,-0.058 h -15.469 l 21.712,-50.901 -8.995,-21.129 h 15.428 L 15.477,0 Z" /></g><g
           transform="translate(528.1211,372.4775)"
           id="g166"><path
             id="path168"
             style="fill:#ea5b22;fill-opacity:1;fill-rule:nonzero;stroke:none"
             d="M 0,0 H 15.494 L 48.737,77.936 H 33.313 Z" /></g><g
           transform="translate(601.9355,325.7822)"
           id="g170"><path
             id="path172"
             style="fill:#cfd704;fill-opacity:1;fill-rule:nonzero;stroke:none"
             d="m 0,0 h -63.478 l -5.708,-13.434 h 63.54 z" /></g></g></g></g></svg>