<?xml version="1.0" encoding="UTF-8" standalone="no"?>
<svg
   xmlns:dc="http://purl.org/dc/elements/1.1/"
   xmlns:cc="http://creativecommons.org/ns#"
   xmlns:rdf="http://www.w3.org/1999/02/22-rdf-syntax-ns#"
   xmlns:svg="http://www.w3.org/2000/svg"
   xmlns="http://www.w3.org/2000/svg"
   viewBox="0 0 113.38587 113.38587"
   height="113.38587"
   width="113.38587"
   xml:space="preserve"
   id="svg2"
   version="1.1"><metadata
     id="metadata8"><rdf:RDF><cc:Work
         rdf:about=""><dc:format>image/svg+xml</dc:format><dc:type
           rdf:resource="http://purl.org/dc/dcmitype/StillImage" /></cc:Work></rdf:RDF></metadata><defs
     id="defs6"><clipPath
       id="clipPath18"
       clipPathUnits="userSpaceOnUse"><path
         id="path16"
         d="M 0,85.039 H 85.039 V 0 H 0 Z" /></clipPath></defs><g
     transform="matrix(1.3333333,0,0,-1.3333333,0,113.38587)"
     id="g10"><g
       id="g12"><g
         clip-path="url(#clipPath18)"
         id="g14"><g
           transform="translate(7.1874,16.4037)"
           id="g20"><path
             id="path22"
             style="fill:#f47216;fill-opacity:1;fill-rule:nonzero;stroke:none"
             d="m 0,0 c 0,6.372 3.754,10.035 10.267,10.035 2.041,0 3.813,-0.316 5.27,-0.931 0.492,-0.228 0.607,-0.347 0.607,-0.783 V 5.844 c 0,-0.345 -0.14,-0.551 -0.376,-0.551 -0.111,0 -0.231,0.061 -0.494,0.234 -1.076,0.67 -2.793,1.105 -4.364,1.105 -3.928,0 -6.105,-2.352 -6.105,-6.571 0,-4.103 2.236,-6.514 6.077,-6.514 1.485,0 2.815,0.377 4.272,1.133 0.295,0.143 0.472,0.202 0.584,0.202 0.266,0 0.406,-0.173 0.406,-0.468 v -2.441 c 0,-0.411 -0.087,-0.552 -0.487,-0.757 C 14.369,-9.482 12.422,-9.832 10.123,-9.832 3.521,-9.832 0,-6.398 0,0" /></g><g
           transform="translate(26.039,11.7504)"
           id="g24"><path
             id="path26"
             style="fill:#f47216;fill-opacity:1;fill-rule:nonzero;stroke:none"
             d="m 0,0 v 9.454 c 0,0.207 0.174,0.378 0.378,0.378 h 3.603 c 0.205,0 0.38,-0.171 0.38,-0.378 V 1.108 c 0,-2.068 0.905,-3.146 2.621,-3.146 1.544,0 2.328,0.758 2.328,2.211 v 9.281 c 0,0.207 0.174,0.378 0.378,0.378 h 3.61 c 0.203,0 0.376,-0.171 0.376,-0.378 V -4.563 c 0,-0.207 -0.173,-0.378 -0.376,-0.378 H 9.977 c -0.202,0 -0.376,0.171 -0.376,0.378 v 0.344 H 9.484 C 9.31,-4.219 9.127,-4.278 8.902,-4.361 8.493,-4.54 8.262,-4.626 8.182,-4.652 7.277,-5.002 6.253,-5.179 5.24,-5.179 1.924,-5.179 0,-3.287 0,0" /></g><g
           transform="translate(44.3613,6.809)"
           id="g28"><path
             id="path30"
             style="fill:#f47216;fill-opacity:1;fill-rule:nonzero;stroke:none"
             d="m 0,0 c -0.201,0 -0.376,0.172 -0.376,0.378 v 14.018 c 0,0.207 0.175,0.377 0.376,0.377 h 3.323 c 0.201,0 0.374,-0.17 0.374,-0.377 V 13.93 h 0.088 c 0.351,0 0.465,0.031 0.902,0.234 0.904,0.379 1.577,0.551 2.387,0.582 l 0.759,0.027 h 0.172 c 0.958,0 1.224,-0.17 1.224,-0.843 v -2.182 c 0,-0.406 -0.119,-0.611 -0.412,-0.611 L 8.5,11.197 C 7.737,11.428 7.043,11.515 6.206,11.515 4.543,11.515 3.99,10.993 3.99,9.335 V 0.378 C 3.99,0.172 3.815,0 3.612,0 Z" /></g><g
           transform="translate(56.498,6.8051)"
           id="g32"><path
             id="path34"
             style="fill:#f47216;fill-opacity:1;fill-rule:nonzero;stroke:none"
             d="m 0,0 c -0.204,0 -0.381,0.176 -0.381,0.382 v 14.016 c 0,0.208 0.177,0.379 0.381,0.379 h 3.604 c 0.201,0 0.377,-0.171 0.377,-0.379 V 0.382 C 3.981,0.176 3.805,0 3.604,0 Z" /></g><g
           transform="translate(68.5361,18.3236)"
           id="g36"><path
             id="path38"
             style="fill:#f47216;fill-opacity:1;fill-rule:nonzero;stroke:none"
             d="m 0,0 c -0.469,-0.521 -0.606,-1.074 -0.606,-2.3 h 5.58 v 0.183 c 0,1.131 -0.167,1.625 -0.699,2.176 C 3.78,0.584 3.056,0.846 2.185,0.846 1.251,0.846 0.524,0.551 0,0 m -2.905,-9.977 c -1.34,1.28 -2.038,3.232 -2.038,5.73 0,5.031 2.562,7.768 7.333,7.768 4.327,0 6.924,-2.737 6.924,-7.274 v -0.842 c 0,-0.203 -0.182,-0.38 -0.385,-0.38 h -9.506 v -0.289 c 0,-2.3 1.45,-3.577 4.042,-3.577 1.54,0 2.903,0.377 4.245,1.194 0.171,0.114 0.262,0.141 0.378,0.141 0.265,0 0.348,-0.116 0.348,-0.432 v -2.009 c 0,-0.493 -0.144,-0.728 -0.638,-0.905 -1.601,-0.635 -3.292,-0.9 -5.295,-0.9 -2.563,0 -4.132,0.497 -5.408,1.775" /></g><g
           transform="translate(55.9033,25.3695)"
           id="g40"><path
             id="path42"
             style="fill:#f47216;fill-opacity:1;fill-rule:nonzero;stroke:none"
             d="M 0,0 C 0,1.323 1.073,2.396 2.397,2.396 3.721,2.396 4.794,1.323 4.794,0 4.794,-1.323 3.721,-2.396 2.397,-2.396 1.073,-2.396 0,-1.323 0,0" /></g><g
           transform="translate(13.5283,31.557)"
           id="g44"><path
             id="path46"
             style="fill:#464a50;fill-opacity:1;fill-rule:nonzero;stroke:none"
             d="m 0,0 v 11.931 c 0,0.18 0.155,0.333 0.332,0.333 h 0.634 c 0.196,0 0.305,-0.103 0.305,-0.304 v -0.181 l 0.198,-0.153 0.202,0.052 0.278,0.128 c 1.063,0.458 2.047,0.659 3.108,0.659 1.441,0 2.682,-0.405 3.436,-1.137 0.89,-0.862 1.238,-1.951 1.238,-3.946 V 0 c 0,-0.175 -0.147,-0.33 -0.348,-0.33 H 8.517 C 8.34,-0.33 8.194,-0.175 8.194,0 v 7.733 c 0,2.483 -1.089,3.672 -3.395,3.672 -1.966,0 -3.259,-0.661 -3.259,-1.673 L 1.54,0 c 0,-0.175 -0.152,-0.33 -0.355,-0.33 H 0.332 C 0.155,-0.33 0,-0.175 0,0" /></g><g
           transform="translate(29.8681,36.4349)"
           id="g48"><path
             id="path50"
             style="fill:#464a50;fill-opacity:1;fill-rule:nonzero;stroke:none"
             d="m 0,0 -1.754,1.19 c -1.592,1.036 -2.073,1.745 -2.073,3.058 0,2.073 1.421,3.339 3.694,3.339 1.524,0 2.983,-0.584 2.983,-1.189 V 5.939 C 2.85,5.791 2.756,5.663 2.623,5.663 2.52,5.663 2.428,5.715 2.218,5.816 L 2.037,5.918 C 1.23,6.321 0.501,6.525 -0.181,6.525 c -1.415,0 -2.354,-0.76 -2.354,-1.972 0,-0.839 0.228,-1.141 1.447,-1.977 L 1.061,1.141 c 1.589,-1.064 2.044,-1.798 2.044,-3.165 0,-2.043 -1.543,-3.411 -3.868,-3.411 -0.932,0 -2.175,0.302 -2.859,0.659 l -0.126,0.073 c -0.276,0.151 -0.302,0.202 -0.302,0.482 v 0.455 c 0,0.174 0.079,0.277 0.223,0.277 0.105,0 0.232,-0.048 0.386,-0.131 0.935,-0.526 1.621,-0.726 2.469,-0.726 1.569,0 2.534,0.809 2.534,2.122 C 1.562,-1.287 1.23,-0.834 0,0" /></g><g
           transform="translate(37.8525,42.7562)"
           id="g52"><path
             id="path54"
             style="fill:#464a50;fill-opacity:1;fill-rule:nonzero;stroke:none"
             d="m 0,0 v -8.57 c 0,-1.368 0.705,-2.097 1.973,-2.097 0.529,0 1.089,0.125 1.645,0.376 l 0.25,0.077 c 0.155,0 0.229,-0.101 0.229,-0.304 v -0.332 c 0,-0.554 -0.986,-0.881 -2.48,-0.881 -1.997,0 -3.157,1.162 -3.157,3.186 V 0 h -1.473 c -0.176,0 -0.32,0.15 -0.32,0.333 v 0.398 c 0,0.181 0.144,0.333 0.32,0.333 h 1.473 v 3.284 c 0,0.178 0.145,0.33 0.329,0.33 h 0.873 C -0.147,4.678 0,4.526 0,4.348 V 1.064 h 3.769 c 0.171,0 0.328,-0.152 0.328,-0.333 V 0.333 C 4.097,0.15 3.94,0 3.769,0 Z" /></g><g
           transform="translate(44.2451,31.557)"
           id="g56"><path
             id="path58"
             style="fill:#464a50;fill-opacity:1;fill-rule:nonzero;stroke:none"
             d="m 0,0 v 11.931 c 0,0.18 0.156,0.333 0.333,0.333 h 0.864 c 0.196,0 0.353,-0.153 0.353,-0.333 V 0 c 0,-0.175 -0.157,-0.33 -0.353,-0.33 H 0.333 C 0.156,-0.33 0,-0.175 0,0" /></g><g
           transform="translate(8.4697,31.557)"
           id="g60"><path
             id="path62"
             style="fill:#464a50;fill-opacity:1;fill-rule:nonzero;stroke:none"
             d="m 0,0 v 11.931 c 0,0.18 0.162,0.333 0.331,0.333 h 0.868 c 0.198,0 0.35,-0.153 0.35,-0.333 V 0 c 0,-0.175 -0.152,-0.33 -0.35,-0.33 H 0.331 C 0.162,-0.33 0,-0.175 0,0" /></g><g
           transform="translate(51.4042,42.7562)"
           id="g64"><path
             id="path66"
             style="fill:#464a50;fill-opacity:1;fill-rule:nonzero;stroke:none"
             d="m 0,0 v -8.57 c 0,-1.368 0.703,-2.097 1.975,-2.097 0.527,0 1.09,0.125 1.639,0.376 l 0.258,0.077 c 0.148,0 0.229,-0.101 0.229,-0.304 v -0.332 c 0,-0.554 -0.988,-0.881 -2.48,-0.881 -1.999,0 -3.161,1.162 -3.161,3.186 V 0 h -1.467 c -0.171,0 -0.328,0.15 -0.328,0.333 v 0.398 c 0,0.181 0.157,0.333 0.328,0.333 h 1.467 v 3.284 c 0,0.178 0.147,0.33 0.328,0.33 h 0.888 C -0.154,4.678 0,4.526 0,4.348 V 1.064 h 3.766 c 0.178,0 0.335,-0.152 0.335,-0.333 V 0.333 C 4.101,0.15 3.944,0 3.766,0 Z" /></g><g
           transform="translate(59.0683,43.4877)"
           id="g68"><path
             id="path70"
             style="fill:#464a50;fill-opacity:1;fill-rule:nonzero;stroke:none"
             d="m 0,0 v -8.088 c 0,-2.124 1.216,-3.31 3.356,-3.31 2.182,0 3.315,0.602 3.315,1.816 V 0 c 0,0.181 0.154,0.333 0.328,0.333 h 0.856 c 0.214,0 0.36,-0.152 0.36,-0.333 v -11.931 c 0,-0.174 -0.146,-0.33 -0.36,-0.33 H 7.253 c -0.229,0 -0.326,0.102 -0.326,0.281 v 0.151 l -0.225,0.225 -0.154,-0.025 -0.152,-0.05 -0.178,-0.077 c -1.569,-0.532 -2.477,-0.706 -3.518,-0.706 -1.18,0 -2.223,0.303 -2.955,0.908 -0.933,0.736 -1.264,1.644 -1.264,3.339 V 0 c 0,0.181 0.152,0.333 0.331,0.333 H -0.33 C -0.129,0.333 0,0.181 0,0" /></g><g
           transform="translate(72.8984,42.7562)"
           id="g72"><path
             id="path74"
             style="fill:#464a50;fill-opacity:1;fill-rule:nonzero;stroke:none"
             d="m 0,0 v -8.57 c 0,-1.368 0.711,-2.097 1.973,-2.097 0.529,0 1.084,0.125 1.645,0.376 l 0.249,0.077 c 0.15,0 0.229,-0.101 0.229,-0.304 v -0.332 c 0,-0.554 -0.989,-0.881 -2.473,-0.881 -1.999,0 -3.165,1.162 -3.165,3.186 V 0 h -1.47 c -0.179,0 -0.321,0.15 -0.321,0.333 v 0.398 c 0,0.181 0.142,0.333 0.321,0.333 h 1.47 v 3.284 c 0,0.178 0.149,0.33 0.331,0.33 H -0.33 C -0.151,4.678 0,4.526 0,4.348 V 1.064 h 3.77 c 0.176,0 0.326,-0.152 0.326,-0.333 V 0.333 C 4.096,0.15 3.946,0 3.77,0 Z" /></g><g
           transform="translate(8.1572,47.6586)"
           id="g76"><path
             id="path78"
             style="fill:#464a50;fill-opacity:1;fill-rule:nonzero;stroke:none"
             d="M 0,0 C 0,0.598 0.484,1.082 1.082,1.082 1.68,1.082 2.165,0.598 2.165,0 2.165,-0.598 1.68,-1.083 1.082,-1.083 0.484,-1.083 0,-0.598 0,0" /></g><g
           transform="translate(43.9413,47.6586)"
           id="g80"><path
             id="path82"
             style="fill:#464a50;fill-opacity:1;fill-rule:nonzero;stroke:none"
             d="M 0,0 C 0,0.598 0.484,1.082 1.082,1.082 1.68,1.082 2.165,0.598 2.165,0 2.165,-0.598 1.68,-1.083 1.082,-1.083 0.484,-1.083 0,-0.598 0,0" /></g><g
           transform="translate(60.8701,57.4564)"
           id="g84"><path
             id="path86"
             style="fill:#c85430;fill-opacity:1;fill-rule:nonzero;stroke:none"
             d="m 0,0 c -0.724,0.017 -1.318,0.075 -1.744,0.156 -1.34,0.266 -1.891,0.902 -1.891,0.902 0,0 -0.208,0.185 -0.432,0.6 C -4.13,1.776 -4.192,1.929 -4.254,2.085 -4.429,1.899 -4.604,1.713 -4.778,1.538 -5.182,1.133 -5.591,0.757 -5.994,0.409 -6.011,0.396 -6.025,0.385 -6.041,0.371 c 0.076,-0.094 0.143,-0.196 0.222,-0.288 0.928,-1.078 2.03,-1.99 3.25,-2.706 0.761,0.491 1.934,1.578 2.69,2.623 C 0.095,0 0.027,-0.001 0,0" /></g><g
           transform="translate(58.162,70.8685)"
           id="g88"><path
             id="path90"
             style="fill:#c85430;fill-opacity:1;fill-rule:nonzero;stroke:none"
             d="M 0,0 C 0.055,0.127 0.105,0.269 0.16,0.392 0.916,2.1 1.665,3.142 1.675,3.155 1.558,3.271 0.646,4.233 -0.896,5.126 -2.093,4.265 -3.115,3.209 -3.935,2.022 -4.026,1.89 -4.103,1.746 -4.188,1.61 -4.149,1.6 -4.106,1.591 -4.067,1.58 -2.725,1.197 -1.525,0.73 -0.551,0.271 -0.355,0.18 -0.177,0.09 0,0" /></g><g
           transform="translate(77.4501,68.8861)"
           id="g92"><path
             id="path94"
             style="fill:#f47216;fill-opacity:1;fill-rule:nonzero;stroke:none"
             d="m 0,0 c -1.761,6.801 -8.795,10.917 -15.716,9.188 -1.664,-0.417 -3.169,-1.134 -4.468,-2.079 0.789,-0.463 1.53,-1.009 2.205,-1.63 -0.108,-0.163 -0.108,-0.163 0,0 0.123,-0.113 0.227,-0.243 0.344,-0.359 0.275,0.404 0.525,0.736 0.737,0.974 0.906,1.008 1.733,1.159 1.733,1.159 0,0 0.809,0.258 2.085,-0.201 1.282,-0.463 3.935,-2.032 6.36,-4.491 2.437,-2.444 3.96,-5.091 4.4,-6.368 0.434,-1.267 0.154,-2.053 0.154,-2.053 0,0 -0.177,-0.813 -1.225,-1.675 -1.046,-0.862 -3.749,-2.336 -7.128,-3.171 -2.268,-0.577 -4.412,-0.751 -5.974,-0.724 -0.119,-0.156 -0.224,-0.322 -0.351,-0.473 h 0.002 c -0.67,-0.8 -1.446,-1.526 -2.307,-2.15 h 0.001 c 1.965,-1.153 4.245,-1.797 6.608,-1.797 1.058,0 2.128,0.127 3.202,0.399 C -2.424,-13.727 1.76,-6.806 0,0" /></g><g
           transform="translate(54.0947,72.4486)"
           id="g96"><path
             id="path98"
             style="fill:#f47216;fill-opacity:1;fill-rule:nonzero;stroke:none"
             d="m 0,0 c -0.039,0.011 -0.082,0.02 -0.121,0.03 -1.802,-2.841 -2.484,-6.362 -1.576,-9.862 0.468,-1.809 1.319,-3.419 2.432,-4.789 0.015,0.013 0.031,0.024 0.046,0.038 0.404,0.348 0.813,0.724 1.216,1.129 0.175,0.175 0.35,0.361 0.524,0.547 -0.093,0.24 -0.181,0.511 -0.241,0.849 -0.235,1.322 -0.18,4.365 0.777,7.659 0.285,1.019 0.637,1.958 1.01,2.819 C 3.891,-1.49 3.712,-1.4 3.517,-1.31 2.542,-0.85 1.343,-0.383 0,0" /></g><g
           transform="translate(57.2353,58.514)"
           id="g100"><path
             id="path102"
             style="fill:#a7a5a6;fill-opacity:1;fill-rule:nonzero;stroke:none"
             d="m 0,0 c 0,0 0.551,-0.636 1.891,-0.901 0.425,-0.081 1.02,-0.14 1.744,-0.157 0.027,-10e-4 0.058,0 0.087,0 C 6.146,2.117 7.041,6.346 5.726,10.418 5.078,12.401 3.976,14.106 2.58,15.492 2.571,15.479 2.563,15.469 2.554,15.454 2.095,14.757 1.575,13.833 1.087,12.746 1.031,12.623 0.981,12.481 0.927,12.354 c 0.691,-0.352 1.24,-0.69 1.597,-0.963 1.071,-0.828 1.281,-1.636 1.281,-1.636 0,0 0.307,-0.777 -0.087,-2.062 C 3.329,6.407 1.891,3.712 -0.464,1.188 -0.516,1.133 -0.567,1.082 -0.619,1.027 -0.558,0.871 -0.495,0.719 -0.433,0.601 -0.208,0.186 0,0 0,0" /></g><g
           transform="translate(55.0507,57.5394)"
           id="g104"><path
             id="path106"
             style="fill:#a7a5a6;fill-opacity:1;fill-rule:nonzero;stroke:none"
             d="m 0,0 c -0.079,0.091 -0.145,0.194 -0.221,0.288 -1.718,-1.481 -3.338,-2.456 -4.256,-2.819 -1.265,-0.501 -2.08,-0.273 -2.08,-0.273 0,0 -0.839,0.127 -1.776,1.104 -0.934,0.974 -2.59,3.548 -3.633,6.814 -1.068,3.263 -1.222,6.3 -1.035,7.629 0.191,1.33 0.8,1.904 0.8,1.904 0,0 0.53,0.651 1.856,0.962 1.332,0.308 4.418,0.433 7.819,-0.311 0.5,-0.106 0.981,-0.23 1.449,-0.359 0.087,0.136 0.162,0.28 0.254,0.413 0.819,1.186 1.842,2.242 3.039,3.104 -3.068,1.798 -6.871,2.345 -10.541,1.199 -6.806,-2.128 -10.566,-9.276 -8.399,-15.965 1.746,-5.413 6.836,-8.867 12.314,-8.867 1.299,0 2.617,0.194 3.918,0.603 1.382,0.43 2.637,1.07 3.742,1.868 C 2.03,-1.99 0.929,-1.078 0,0" /></g></g></g></g></svg>